<?xml version="1.0" encoding="UTF-8" standalone="no"?><svg xmlns="http://www.w3.org/2000/svg" xmlns:xlink="http://www.w3.org/1999/xlink" contentStyleType="text/css" height="676px" preserveAspectRatio="none" style="width:781px;height:676px;background:#FFFFFF;" version="1.1" viewBox="0 0 781 676" width="781px" zoomAndPan="magnify"><defs/><g><!--MD5=[bec8c71e0c9c46c36bfcbdb86571d9e4]
cluster icao_wgs84--><g id="cluster_icao_wgs84"><path d="M8.5,60.891 L90.5,60.891 A3.75,3.75 0 0 1 93,63.391 L100,84.5004 L407.5,84.5004 A2.5,2.5 0 0 1 410,87.0004 L410,666.891 A2.5,2.5 0 0 1 407.5,669.391 L8.5,669.391 A2.5,2.5 0 0 1 6,666.891 L6,63.391 A2.5,2.5 0 0 1 8.5,60.891 " fill="none" style="stroke:#000000;stroke-width:1.5;"/><line style="stroke:#000000;stroke-width:1.5;" x1="6" x2="100" y1="84.5004" y2="84.5004"/><text fill="#000000" font-family="sans-serif" font-size="14" font-weight="bold" lengthAdjust="spacing" textLength="81" x="10" y="77.4242">icao_wgs84</text></g><!--MD5=[b5bd7bbdf914b60ddfb57baababcb140]
cluster icao_wgs84::geodesic--><g id="cluster_icao_wgs84::geodesic"><path d="M266.5,122.391 L332.5,122.391 A3.75,3.75 0 0 1 335,124.891 L342,146.0004 L383.5,146.0004 A2.5,2.5 0 0 1 386,148.5004 L386,219.891 A2.5,2.5 0 0 1 383.5,222.391 L266.5,222.391 A2.5,2.5 0 0 1 264,219.891 L264,124.891 A2.5,2.5 0 0 1 266.5,122.391 " fill="none" style="stroke:#000000;stroke-width:1.5;"/><line style="stroke:#000000;stroke-width:1.5;" x1="264" x2="342" y1="146.0004" y2="146.0004"/><text fill="#000000" font-family="sans-serif" font-size="14" font-weight="bold" lengthAdjust="spacing" textLength="65" x="268" y="138.9242">geodesic</text></g><!--MD5=[820f2fd69173ded0ac841c3697ef4a95]
cluster icao_wgs84::ellipsoid--><g id="cluster_icao_wgs84::ellipsoid"><path d="M32.5,538.391 L93.5,538.391 A3.75,3.75 0 0 1 96,540.891 L103,562.0004 L383.5,562.0004 A2.5,2.5 0 0 1 386,564.5004 L386,642.891 A2.5,2.5 0 0 1 383.5,645.391 L32.5,645.391 A2.5,2.5 0 0 1 30,642.891 L30,540.891 A2.5,2.5 0 0 1 32.5,538.391 " fill="none" style="stroke:#000000;stroke-width:1.5;"/><line style="stroke:#000000;stroke-width:1.5;" x1="30" x2="103" y1="562.0004" y2="562.0004"/><text fill="#000000" font-family="sans-serif" font-size="14" font-weight="bold" lengthAdjust="spacing" textLength="60" x="34" y="554.9242">ellipsoid</text></g><!--MD5=[26d83f5000736b18d68aea483f9a5ad3]
cluster unit_sphere--><g id="cluster_unit_sphere"><path d="M547.5,104.891 L633.5,104.891 A3.75,3.75 0 0 1 636,107.391 L643,128.5004 L658.5,128.5004 A2.5,2.5 0 0 1 661,131.0004 L661,237.391 A2.5,2.5 0 0 1 658.5,239.891 L547.5,239.891 A2.5,2.5 0 0 1 545,237.391 L545,107.391 A2.5,2.5 0 0 1 547.5,104.891 " fill="none" style="stroke:#000000;stroke-width:1.5;"/><line style="stroke:#000000;stroke-width:1.5;" x1="545" x2="643" y1="128.5004" y2="128.5004"/><text fill="#000000" font-family="sans-serif" font-size="14" font-weight="bold" lengthAdjust="spacing" textLength="85" x="549" y="121.4242">unit_sphere</text></g><!--MD5=[cb13657d0ee927eafe61aa4c4029dc0b]
cluster angle_sc--><g id="cluster_angle_sc"><path d="M436.5,327.391 L500.5,327.391 A3.75,3.75 0 0 1 503,329.891 L510,351.0004 L771.5,351.0004 A2.5,2.5 0 0 1 774,353.5004 L774,459.891 A2.5,2.5 0 0 1 771.5,462.391 L436.5,462.391 A2.5,2.5 0 0 1 434,459.891 L434,329.891 A2.5,2.5 0 0 1 436.5,327.391 " fill="none" style="stroke:#000000;stroke-width:1.5;"/><line style="stroke:#000000;stroke-width:1.5;" x1="434" x2="510" y1="351.0004" y2="351.0004"/><text fill="#000000" font-family="sans-serif" font-size="14" font-weight="bold" lengthAdjust="spacing" textLength="63" x="438" y="343.9242">angle_sc</text></g><!--MD5=[11b833c7d57d052554405983aaea63bf]
cluster icao_units--><g id="cluster_icao_units"><path d="M436.5,497.891 L509.5,497.891 A3.75,3.75 0 0 1 512,500.391 L519,521.5004 L712.5,521.5004 A2.5,2.5 0 0 1 715,524.0004 L715,663.391 A2.5,2.5 0 0 1 712.5,665.891 L436.5,665.891 A2.5,2.5 0 0 1 434,663.391 L434,500.391 A2.5,2.5 0 0 1 436.5,497.891 " fill="none" style="stroke:#000000;stroke-width:1.5;"/><line style="stroke:#000000;stroke-width:1.5;" x1="434" x2="519" y1="521.5004" y2="521.5004"/><text fill="#000000" font-family="sans-serif" font-size="14" font-weight="bold" lengthAdjust="spacing" textLength="72" x="438" y="514.4242">icao_units</text></g><!--MD5=[2af43ec13749a333f49a29eec01ed862]
cluster icao_units::non_si--><g id="cluster_icao_units::non_si"><path d="M547.5,541.891 L595.5,541.891 A3.75,3.75 0 0 1 598,544.391 L605,565.5004 L688.5,565.5004 A2.5,2.5 0 0 1 691,568.0004 L691,639.391 A2.5,2.5 0 0 1 688.5,641.891 L547.5,641.891 A2.5,2.5 0 0 1 545,639.391 L545,544.391 A2.5,2.5 0 0 1 547.5,541.891 " fill="none" style="stroke:#000000;stroke-width:1.5;"/><line style="stroke:#000000;stroke-width:1.5;" x1="545" x2="605" y1="565.5004" y2="565.5004"/><text fill="#000000" font-family="sans-serif" font-size="14" font-weight="bold" lengthAdjust="spacing" textLength="47" x="549" y="558.4242">non_si</text></g><!--MD5=[432a19f58e0313ce97e157d12a4a6234]
class icao_wgs84::Geodesic--><g id="elem_icao_wgs84::Geodesic"><rect codeLine="12" fill="#F1F1F1" height="171.2656" id="icao_wgs84::Geodesic" rx="2.5" ry="2.5" style="stroke:#181818;stroke-width:0.5;" width="178" x="67" y="96.891"/><ellipse cx="121.75" cy="112.891" fill="#ADD1B2" rx="11" ry="11" style="stroke:#181818;stroke-width:1.0;"/><path d="M124.5156,108.766 Q124.6719,108.5472 124.8594,108.4379 Q125.0469,108.3285 125.2656,108.3285 Q125.6406,108.3285 125.875,108.5863 Q126.1094,108.8441 126.1094,109.4535 L126.1094,110.9066 Q126.1094,111.516 125.875,111.7816 Q125.6406,112.0472 125.2656,112.0472 Q124.9219,112.0472 124.7188,111.8441 Q124.5156,111.6566 124.4063,111.141 Q124.3594,110.7816 124.1719,110.5941 Q123.8438,110.2191 123.2344,110.0004 Q122.625,109.7816 122,109.7816 Q121.2344,109.7816 120.6016,110.1097 Q119.9688,110.4379 119.4766,111.1879 Q118.9844,111.9379 118.9844,112.9691 L118.9844,114.0629 Q118.9844,115.2972 119.875,116.1176 Q120.7656,116.9379 122.3594,116.9379 Q123.2969,116.9379 123.9531,116.6879 Q124.3438,116.5316 124.7656,116.0941 Q125.0313,115.8285 125.1797,115.7504 Q125.3281,115.6722 125.5313,115.6722 Q125.8594,115.6722 126.1172,115.9301 Q126.375,116.1879 126.375,116.5316 Q126.375,116.8754 126.0313,117.2816 Q125.5313,117.8597 124.7344,118.1879 Q123.6563,118.641 122.3594,118.641 Q120.8438,118.641 119.6406,118.016 Q118.6563,117.516 117.9688,116.4457 Q117.2813,115.3754 117.2813,114.0941 L117.2813,112.9379 Q117.2813,111.6097 117.8984,110.4613 Q118.5156,109.3129 119.6094,108.6957 Q120.7031,108.0785 121.9375,108.0785 Q122.6719,108.0785 123.3203,108.2426 Q123.9688,108.4066 124.5156,108.766 Z " fill="#000000"/><text fill="#000000" font-family="sans-serif" font-size="14" lengthAdjust="spacing" textLength="60" x="142.25" y="118.6195">Geodesic</text><line style="stroke:#181818;stroke-width:0.5;" x1="68" x2="244" y1="128.891" y2="128.891"/><rect fill="none" height="6" style="stroke:#C82930;stroke-width:1.0;" width="6" x="75" y="140.1957"/><text fill="#000000" font-family="sans-serif" font-size="14" lengthAdjust="spacing" textLength="28" x="87" y="147.4242">beta</text><rect fill="none" height="6" style="stroke:#C82930;stroke-width:1.0;" width="6" x="75" y="157.8051"/><text fill="#000000" font-family="sans-serif" font-size="14" lengthAdjust="spacing" textLength="19" x="87" y="165.0336">lon</text><rect fill="none" height="6" style="stroke:#C82930;stroke-width:1.0;" width="6" x="75" y="175.4144"/><text fill="#000000" font-family="sans-serif" font-size="14" lengthAdjust="spacing" textLength="17" x="87" y="182.643">azi</text><rect fill="none" height="6" style="stroke:#C82930;stroke-width:1.0;" width="6" x="75" y="193.0238"/><text fill="#000000" font-family="sans-serif" font-size="14" lengthAdjust="spacing" textLength="69" x="87" y="200.2523">aux_length</text><rect fill="none" height="6" style="stroke:#C82930;stroke-width:1.0;" width="6" x="75" y="210.6332"/><text fill="#000000" font-family="sans-serif" font-size="14" lengthAdjust="spacing" textLength="51" x="87" y="217.8617">ellipsoid</text><line style="stroke:#181818;stroke-width:0.5;" x1="68" x2="244" y1="224.9379" y2="224.9379"/><ellipse cx="78" cy="239.2426" fill="#84BE84" rx="3" ry="3" style="stroke:#038048;stroke-width:1.0;"/><text fill="#000000" font-family="sans-serif" font-size="14" lengthAdjust="spacing" textLength="60" x="87" y="243.4711">lat_long()</text><ellipse cx="78" cy="256.8519" fill="#84BE84" rx="3" ry="3" style="stroke:#038048;stroke-width:1.0;"/><text fill="#000000" font-family="sans-serif" font-size="14" lengthAdjust="spacing" textLength="152" x="87" y="261.0805">calculate_atd_and_xtd()</text></g><!--MD5=[4be396fbb65a7854e252d4c1b1d4e072]
class icao_wgs84::Ellipsoid--><g id="elem_icao_wgs84::Ellipsoid"><rect codeLine="27" fill="#F1F1F1" height="153.6563" id="icao_wgs84::Ellipsoid" rx="2.5" ry="2.5" style="stroke:#181818;stroke-width:0.5;" width="221" x="104.5" y="327.891"/><ellipse cx="184.75" cy="343.891" fill="#ADD1B2" rx="11" ry="11" style="stroke:#181818;stroke-width:1.0;"/><path d="M187.5156,339.766 Q187.6719,339.5472 187.8594,339.4379 Q188.0469,339.3285 188.2656,339.3285 Q188.6406,339.3285 188.875,339.5863 Q189.1094,339.8441 189.1094,340.4535 L189.1094,341.9066 Q189.1094,342.516 188.875,342.7816 Q188.6406,343.0472 188.2656,343.0472 Q187.9219,343.0472 187.7188,342.8441 Q187.5156,342.6566 187.4063,342.141 Q187.3594,341.7816 187.1719,341.5941 Q186.8438,341.2191 186.2344,341.0004 Q185.625,340.7816 185,340.7816 Q184.2344,340.7816 183.6016,341.1097 Q182.9688,341.4379 182.4766,342.1879 Q181.9844,342.9379 181.9844,343.9691 L181.9844,345.0629 Q181.9844,346.2972 182.875,347.1176 Q183.7656,347.9379 185.3594,347.9379 Q186.2969,347.9379 186.9531,347.6879 Q187.3438,347.5316 187.7656,347.0941 Q188.0313,346.8285 188.1797,346.7504 Q188.3281,346.6722 188.5313,346.6722 Q188.8594,346.6722 189.1172,346.9301 Q189.375,347.1879 189.375,347.5316 Q189.375,347.8754 189.0313,348.2816 Q188.5313,348.8597 187.7344,349.1879 Q186.6563,349.641 185.3594,349.641 Q183.8438,349.641 182.6406,349.016 Q181.6563,348.516 180.9688,347.4457 Q180.2813,346.3754 180.2813,345.0941 L180.2813,343.9379 Q180.2813,342.6097 180.8984,341.4613 Q181.5156,340.3129 182.6094,339.6957 Q183.7031,339.0785 184.9375,339.0785 Q185.6719,339.0785 186.3203,339.2426 Q186.9688,339.4066 187.5156,339.766 Z " fill="#000000"/><text fill="#000000" font-family="sans-serif" font-size="14" lengthAdjust="spacing" textLength="52" x="205.25" y="349.6195">Ellipsoid</text><line style="stroke:#181818;stroke-width:0.5;" x1="105.5" x2="324.5" y1="359.891" y2="359.891"/><rect fill="none" height="6" style="stroke:#C82930;stroke-width:1.0;" width="6" x="112.5" y="371.1957"/><text fill="#000000" font-family="sans-serif" font-size="14" lengthAdjust="spacing" textLength="8" x="124.5" y="378.4242">a</text><rect fill="none" height="6" style="stroke:#C82930;stroke-width:1.0;" width="6" x="112.5" y="388.8051"/><text fill="#000000" font-family="sans-serif" font-size="14" lengthAdjust="spacing" textLength="4" x="124.5" y="396.0336">f</text><line style="stroke:#181818;stroke-width:0.5;" x1="105.5" x2="324.5" y1="403.1097" y2="403.1097"/><ellipse cx="115.5" cy="417.4144" fill="#84BE84" rx="3" ry="3" style="stroke:#038048;stroke-width:1.0;"/><text fill="#000000" font-family="sans-serif" font-size="14" lengthAdjust="spacing" textLength="18" x="124.5" y="421.643">b()</text><ellipse cx="115.5" cy="435.0238" fill="#84BE84" rx="3" ry="3" style="stroke:#038048;stroke-width:1.0;"/><text fill="#000000" font-family="sans-serif" font-size="14" lengthAdjust="spacing" textLength="91" x="124.5" y="439.2523">one_minus_f()</text><ellipse cx="115.5" cy="452.6332" fill="#84BE84" rx="3" ry="3" style="stroke:#038048;stroke-width:1.0;"/><text fill="#000000" font-family="sans-serif" font-size="14" lengthAdjust="spacing" textLength="195" x="124.5" y="456.8617">calculate_parametric_latitude()</text><ellipse cx="115.5" cy="470.2426" fill="#84BE84" rx="3" ry="3" style="stroke:#038048;stroke-width:1.0;"/><text fill="#000000" font-family="sans-serif" font-size="14" lengthAdjust="spacing" textLength="182" x="124.5" y="474.4711">calculate_geodetic_latitude()</text></g><!--MD5=[bf432329301ad8e3e05c1fc501cd693c]
class geodesic::functions--><g id="elem_geodesic::functions"><rect fill="#F1F1F1" height="48" id="geodesic::functions" rx="2.5" ry="2.5" style="stroke:#181818;stroke-width:0.5;" width="89" x="280.5" y="158.391"/><ellipse cx="295.5" cy="174.391" fill="#ADD1B2" rx="11" ry="11" style="stroke:#181818;stroke-width:1.0;"/><path d="M298.2656,170.266 Q298.4219,170.0472 298.6094,169.9379 Q298.7969,169.8285 299.0156,169.8285 Q299.3906,169.8285 299.625,170.0863 Q299.8594,170.3441 299.8594,170.9535 L299.8594,172.4066 Q299.8594,173.016 299.625,173.2816 Q299.3906,173.5472 299.0156,173.5472 Q298.6719,173.5472 298.4688,173.3441 Q298.2656,173.1566 298.1563,172.641 Q298.1094,172.2816 297.9219,172.0941 Q297.5938,171.7191 296.9844,171.5004 Q296.375,171.2816 295.75,171.2816 Q294.9844,171.2816 294.3516,171.6097 Q293.7188,171.9379 293.2266,172.6879 Q292.7344,173.4379 292.7344,174.4691 L292.7344,175.5629 Q292.7344,176.7972 293.625,177.6176 Q294.5156,178.4379 296.1094,178.4379 Q297.0469,178.4379 297.7031,178.1879 Q298.0938,178.0316 298.5156,177.5941 Q298.7813,177.3285 298.9297,177.2504 Q299.0781,177.1722 299.2813,177.1722 Q299.6094,177.1722 299.8672,177.4301 Q300.125,177.6879 300.125,178.0316 Q300.125,178.3754 299.7813,178.7816 Q299.2813,179.3597 298.4844,179.6879 Q297.4063,180.141 296.1094,180.141 Q294.5938,180.141 293.3906,179.516 Q292.4063,179.016 291.7188,177.9457 Q291.0313,176.8754 291.0313,175.5941 L291.0313,174.4379 Q291.0313,173.1097 291.6484,171.9613 Q292.2656,170.8129 293.3594,170.1957 Q294.4531,169.5785 295.6875,169.5785 Q296.4219,169.5785 297.0703,169.7426 Q297.7188,169.9066 298.2656,170.266 Z " fill="#000000"/><text fill="#000000" font-family="sans-serif" font-size="14" lengthAdjust="spacing" textLength="57" x="309.5" y="180.1195">functions</text><line style="stroke:#181818;stroke-width:0.5;" x1="281.5" x2="368.5" y1="190.391" y2="190.391"/><line style="stroke:#181818;stroke-width:0.5;" x1="281.5" x2="368.5" y1="198.391" y2="198.391"/></g><!--MD5=[70fb9f078d999ff11ba15913883a1dbb]
class ellipsoid::functions--><g id="elem_ellipsoid::functions"><rect fill="#F1F1F1" height="48" id="ellipsoid::functions" rx="2.5" ry="2.5" style="stroke:#181818;stroke-width:0.5;" width="89" x="280.5" y="577.891"/><ellipse cx="295.5" cy="593.891" fill="#ADD1B2" rx="11" ry="11" style="stroke:#181818;stroke-width:1.0;"/><path d="M298.2656,589.766 Q298.4219,589.5473 298.6094,589.4379 Q298.7969,589.3285 299.0156,589.3285 Q299.3906,589.3285 299.625,589.5863 Q299.8594,589.8441 299.8594,590.4535 L299.8594,591.9066 Q299.8594,592.516 299.625,592.7816 Q299.3906,593.0473 299.0156,593.0473 Q298.6719,593.0473 298.4688,592.8441 Q298.2656,592.6566 298.1563,592.141 Q298.1094,591.7816 297.9219,591.5941 Q297.5938,591.2191 296.9844,591.0004 Q296.375,590.7816 295.75,590.7816 Q294.9844,590.7816 294.3516,591.1098 Q293.7188,591.4379 293.2266,592.1879 Q292.7344,592.9379 292.7344,593.9691 L292.7344,595.0629 Q292.7344,596.2973 293.625,597.1176 Q294.5156,597.9379 296.1094,597.9379 Q297.0469,597.9379 297.7031,597.6879 Q298.0938,597.5316 298.5156,597.0941 Q298.7813,596.8285 298.9297,596.7504 Q299.0781,596.6723 299.2813,596.6723 Q299.6094,596.6723 299.8672,596.9301 Q300.125,597.1879 300.125,597.5316 Q300.125,597.8754 299.7813,598.2816 Q299.2813,598.8598 298.4844,599.1879 Q297.4063,599.641 296.1094,599.641 Q294.5938,599.641 293.3906,599.016 Q292.4063,598.516 291.7188,597.4457 Q291.0313,596.3754 291.0313,595.0941 L291.0313,593.9379 Q291.0313,592.6098 291.6484,591.4613 Q292.2656,590.3129 293.3594,589.6957 Q294.4531,589.0785 295.6875,589.0785 Q296.4219,589.0785 297.0703,589.2426 Q297.7188,589.4066 298.2656,589.766 Z " fill="#000000"/><text fill="#000000" font-family="sans-serif" font-size="14" lengthAdjust="spacing" textLength="57" x="309.5" y="599.6195">functions</text><line style="stroke:#181818;stroke-width:0.5;" x1="281.5" x2="368.5" y1="609.891" y2="609.891"/><line style="stroke:#181818;stroke-width:0.5;" x1="281.5" x2="368.5" y1="617.891" y2="617.891"/></g><!--MD5=[3c6594b8731b9b0a5e1ecf3bbb1d1385]
class ellipsoid::wgs84--><g id="elem_ellipsoid::wgs84"><rect fill="#F1F1F1" height="48" id="ellipsoid::wgs84" rx="2.5" ry="2.5" style="stroke:#181818;stroke-width:0.5;" width="72" x="173" y="577.891"/><ellipse cx="188" cy="593.891" fill="#ADD1B2" rx="11" ry="11" style="stroke:#181818;stroke-width:1.0;"/><path d="M190.7656,589.766 Q190.9219,589.5473 191.1094,589.4379 Q191.2969,589.3285 191.5156,589.3285 Q191.8906,589.3285 192.125,589.5863 Q192.3594,589.8441 192.3594,590.4535 L192.3594,591.9066 Q192.3594,592.516 192.125,592.7816 Q191.8906,593.0473 191.5156,593.0473 Q191.1719,593.0473 190.9688,592.8441 Q190.7656,592.6566 190.6563,592.141 Q190.6094,591.7816 190.4219,591.5941 Q190.0938,591.2191 189.4844,591.0004 Q188.875,590.7816 188.25,590.7816 Q187.4844,590.7816 186.8516,591.1098 Q186.2188,591.4379 185.7266,592.1879 Q185.2344,592.9379 185.2344,593.9691 L185.2344,595.0629 Q185.2344,596.2973 186.125,597.1176 Q187.0156,597.9379 188.6094,597.9379 Q189.5469,597.9379 190.2031,597.6879 Q190.5938,597.5316 191.0156,597.0941 Q191.2813,596.8285 191.4297,596.7504 Q191.5781,596.6723 191.7813,596.6723 Q192.1094,596.6723 192.3672,596.9301 Q192.625,597.1879 192.625,597.5316 Q192.625,597.8754 192.2813,598.2816 Q191.7813,598.8598 190.9844,599.1879 Q189.9063,599.641 188.6094,599.641 Q187.0938,599.641 185.8906,599.016 Q184.9063,598.516 184.2188,597.4457 Q183.5313,596.3754 183.5313,595.0941 L183.5313,593.9379 Q183.5313,592.6098 184.1484,591.4613 Q184.7656,590.3129 185.8594,589.6957 Q186.9531,589.0785 188.1875,589.0785 Q188.9219,589.0785 189.5703,589.2426 Q190.2188,589.4066 190.7656,589.766 Z " fill="#000000"/><text fill="#000000" font-family="sans-serif" font-size="14" lengthAdjust="spacing" textLength="40" x="202" y="599.6195">wgs84</text><line style="stroke:#181818;stroke-width:0.5;" x1="174" x2="244" y1="609.891" y2="609.891"/><line style="stroke:#181818;stroke-width:0.5;" x1="174" x2="244" y1="617.891" y2="617.891"/></g><path d="M49,574.391 L121,574.391 A3.75,3.75 0 0 1 123.5,576.891 L130.5,598.0004 L135,598.0004 A2.5,2.5 0 0 1 137.5,600.5004 L137.5,627.1098 A2.5,2.5 0 0 1 135,629.6098 L49,629.6098 A2.5,2.5 0 0 1 46.5,627.1098 L46.5,576.891 A2.5,2.5 0 0 1 49,574.391 " fill="#F1F1F1" style="stroke:#181818;stroke-width:0.5;"/><line style="stroke:#181818;stroke-width:0.5;" x1="46.5" x2="130.5" y1="598.0004" y2="598.0004"/><text fill="#000000" font-family="sans-serif" font-size="14" lengthAdjust="spacing" textLength="71" x="50.5" y="590.9242">coefficients</text><!--MD5=[8a01ef15b2c6dccd9164468e177481d9]
class unit_sphere::LatLong--><g id="elem_unit_sphere::LatLong"><rect codeLine="43" fill="#F1F1F1" height="83.2188" id="unit_sphere::LatLong" rx="2.5" ry="2.5" style="stroke:#181818;stroke-width:0.5;" width="84" x="561" y="140.891"/><ellipse cx="576" cy="156.891" fill="#ADD1B2" rx="11" ry="11" style="stroke:#181818;stroke-width:1.0;"/><path d="M578.7656,152.766 Q578.9219,152.5472 579.1094,152.4379 Q579.2969,152.3285 579.5156,152.3285 Q579.8906,152.3285 580.125,152.5863 Q580.3594,152.8441 580.3594,153.4535 L580.3594,154.9066 Q580.3594,155.516 580.125,155.7816 Q579.8906,156.0472 579.5156,156.0472 Q579.1719,156.0472 578.9688,155.8441 Q578.7656,155.6566 578.6563,155.141 Q578.6094,154.7816 578.4219,154.5941 Q578.0938,154.2191 577.4844,154.0004 Q576.875,153.7816 576.25,153.7816 Q575.4844,153.7816 574.8516,154.1097 Q574.2188,154.4379 573.7266,155.1879 Q573.2344,155.9379 573.2344,156.9691 L573.2344,158.0629 Q573.2344,159.2972 574.125,160.1176 Q575.0156,160.9379 576.6094,160.9379 Q577.5469,160.9379 578.2031,160.6879 Q578.5938,160.5316 579.0156,160.0941 Q579.2813,159.8285 579.4297,159.7504 Q579.5781,159.6722 579.7813,159.6722 Q580.1094,159.6722 580.3672,159.9301 Q580.625,160.1879 580.625,160.5316 Q580.625,160.8754 580.2813,161.2816 Q579.7813,161.8597 578.9844,162.1879 Q577.9063,162.641 576.6094,162.641 Q575.0938,162.641 573.8906,162.016 Q572.9063,161.516 572.2188,160.4457 Q571.5313,159.3754 571.5313,158.0941 L571.5313,156.9379 Q571.5313,155.6097 572.1484,154.4613 Q572.7656,153.3129 573.8594,152.6957 Q574.9531,152.0785 576.1875,152.0785 Q576.9219,152.0785 577.5703,152.2426 Q578.2188,152.4066 578.7656,152.766 Z " fill="#000000"/><text fill="#000000" font-family="sans-serif" font-size="14" lengthAdjust="spacing" textLength="52" x="590" y="162.6195">LatLong</text><line style="stroke:#181818;stroke-width:0.5;" x1="562" x2="644" y1="172.891" y2="172.891"/><rect fill="none" height="6" style="stroke:#C82930;stroke-width:1.0;" width="6" x="569" y="184.1957"/><text fill="#000000" font-family="sans-serif" font-size="14" lengthAdjust="spacing" textLength="15" x="581" y="191.4242">lat</text><rect fill="none" height="6" style="stroke:#C82930;stroke-width:1.0;" width="6" x="569" y="201.8051"/><text fill="#000000" font-family="sans-serif" font-size="14" lengthAdjust="spacing" textLength="19" x="581" y="209.0336">lon</text><line style="stroke:#181818;stroke-width:0.5;" x1="562" x2="644" y1="216.1097" y2="216.1097"/></g><!--MD5=[c43c29821ea09622c8803ac1bf52f406]
class angle_sc::Angle--><g id="elem_angle_sc::Angle"><rect codeLine="51" fill="#F1F1F1" height="83.2188" id="angle_sc::Angle" rx="2.5" ry="2.5" style="stroke:#181818;stroke-width:0.5;" width="68" x="569" y="363.391"/><ellipse cx="584" cy="379.391" fill="#ADD1B2" rx="11" ry="11" style="stroke:#181818;stroke-width:1.0;"/><path d="M586.7656,375.266 Q586.9219,375.0472 587.1094,374.9379 Q587.2969,374.8285 587.5156,374.8285 Q587.8906,374.8285 588.125,375.0863 Q588.3594,375.3441 588.3594,375.9535 L588.3594,377.4066 Q588.3594,378.016 588.125,378.2816 Q587.8906,378.5472 587.5156,378.5472 Q587.1719,378.5472 586.9688,378.3441 Q586.7656,378.1566 586.6563,377.641 Q586.6094,377.2816 586.4219,377.0941 Q586.0938,376.7191 585.4844,376.5004 Q584.875,376.2816 584.25,376.2816 Q583.4844,376.2816 582.8516,376.6097 Q582.2188,376.9379 581.7266,377.6879 Q581.2344,378.4379 581.2344,379.4691 L581.2344,380.5629 Q581.2344,381.7972 582.125,382.6176 Q583.0156,383.4379 584.6094,383.4379 Q585.5469,383.4379 586.2031,383.1879 Q586.5938,383.0316 587.0156,382.5941 Q587.2813,382.3285 587.4297,382.2504 Q587.5781,382.1722 587.7813,382.1722 Q588.1094,382.1722 588.3672,382.4301 Q588.625,382.6879 588.625,383.0316 Q588.625,383.3754 588.2813,383.7816 Q587.7813,384.3597 586.9844,384.6879 Q585.9063,385.141 584.6094,385.141 Q583.0938,385.141 581.8906,384.516 Q580.9063,384.016 580.2188,382.9457 Q579.5313,381.8754 579.5313,380.5941 L579.5313,379.4379 Q579.5313,378.1097 580.1484,376.9613 Q580.7656,375.8129 581.8594,375.1957 Q582.9531,374.5785 584.1875,374.5785 Q584.9219,374.5785 585.5703,374.7426 Q586.2188,374.9066 586.7656,375.266 Z " fill="#000000"/><text fill="#000000" font-family="sans-serif" font-size="14" lengthAdjust="spacing" textLength="36" x="598" y="385.1195">Angle</text><line style="stroke:#181818;stroke-width:0.5;" x1="570" x2="636" y1="395.391" y2="395.391"/><rect fill="none" height="6" style="stroke:#C82930;stroke-width:1.0;" width="6" x="577" y="406.6957"/><text fill="#000000" font-family="sans-serif" font-size="14" lengthAdjust="spacing" textLength="18" x="589" y="413.9242">sin</text><rect fill="none" height="6" style="stroke:#C82930;stroke-width:1.0;" width="6" x="577" y="424.3051"/><text fill="#000000" font-family="sans-serif" font-size="14" lengthAdjust="spacing" textLength="22" x="589" y="431.5336">cos</text><line style="stroke:#181818;stroke-width:0.5;" x1="570" x2="636" y1="438.6097" y2="438.6097"/></g><!--MD5=[7f9116ebae8cb057dda468efa32327bb]
class angle_sc::Degrees--><g id="elem_angle_sc::Degrees"><rect fill="#F1F1F1" height="48" id="angle_sc::Degrees" rx="2.5" ry="2.5" style="stroke:#181818;stroke-width:0.5;" width="86" x="672" y="380.891"/><ellipse cx="687" cy="396.891" fill="#ADD1B2" rx="11" ry="11" style="stroke:#181818;stroke-width:1.0;"/><path d="M689.7656,392.766 Q689.9219,392.5472 690.1094,392.4379 Q690.2969,392.3285 690.5156,392.3285 Q690.8906,392.3285 691.125,392.5863 Q691.3594,392.8441 691.3594,393.4535 L691.3594,394.9066 Q691.3594,395.516 691.125,395.7816 Q690.8906,396.0472 690.5156,396.0472 Q690.1719,396.0472 689.9688,395.8441 Q689.7656,395.6566 689.6563,395.141 Q689.6094,394.7816 689.4219,394.5941 Q689.0938,394.2191 688.4844,394.0004 Q687.875,393.7816 687.25,393.7816 Q686.4844,393.7816 685.8516,394.1097 Q685.2188,394.4379 684.7266,395.1879 Q684.2344,395.9379 684.2344,396.9691 L684.2344,398.0629 Q684.2344,399.2972 685.125,400.1176 Q686.0156,400.9379 687.6094,400.9379 Q688.5469,400.9379 689.2031,400.6879 Q689.5938,400.5316 690.0156,400.0941 Q690.2813,399.8285 690.4297,399.7504 Q690.5781,399.6722 690.7813,399.6722 Q691.1094,399.6722 691.3672,399.9301 Q691.625,400.1879 691.625,400.5316 Q691.625,400.8754 691.2813,401.2816 Q690.7813,401.8597 689.9844,402.1879 Q688.9063,402.641 687.6094,402.641 Q686.0938,402.641 684.8906,402.016 Q683.9063,401.516 683.2188,400.4457 Q682.5313,399.3754 682.5313,398.0941 L682.5313,396.9379 Q682.5313,395.6097 683.1484,394.4613 Q683.7656,393.3129 684.8594,392.6957 Q685.9531,392.0785 687.1875,392.0785 Q687.9219,392.0785 688.5703,392.2426 Q689.2188,392.4066 689.7656,392.766 Z " fill="#000000"/><text fill="#000000" font-family="sans-serif" font-size="14" lengthAdjust="spacing" textLength="54" x="701" y="402.6195">Degrees</text><line style="stroke:#181818;stroke-width:0.5;" x1="673" x2="757" y1="412.891" y2="412.891"/><line style="stroke:#181818;stroke-width:0.5;" x1="673" x2="757" y1="420.891" y2="420.891"/></g><!--MD5=[823c6aab46e368a6f60237e0ee16f4db]
class angle_sc::Radians--><g id="elem_angle_sc::Radians"><rect fill="#F1F1F1" height="48" id="angle_sc::Radians" rx="2.5" ry="2.5" style="stroke:#181818;stroke-width:0.5;" width="84" x="450" y="380.891"/><ellipse cx="465" cy="396.891" fill="#ADD1B2" rx="11" ry="11" style="stroke:#181818;stroke-width:1.0;"/><path d="M467.7656,392.766 Q467.9219,392.5472 468.1094,392.4379 Q468.2969,392.3285 468.5156,392.3285 Q468.8906,392.3285 469.125,392.5863 Q469.3594,392.8441 469.3594,393.4535 L469.3594,394.9066 Q469.3594,395.516 469.125,395.7816 Q468.8906,396.0472 468.5156,396.0472 Q468.1719,396.0472 467.9688,395.8441 Q467.7656,395.6566 467.6563,395.141 Q467.6094,394.7816 467.4219,394.5941 Q467.0938,394.2191 466.4844,394.0004 Q465.875,393.7816 465.25,393.7816 Q464.4844,393.7816 463.8516,394.1097 Q463.2188,394.4379 462.7266,395.1879 Q462.2344,395.9379 462.2344,396.9691 L462.2344,398.0629 Q462.2344,399.2972 463.125,400.1176 Q464.0156,400.9379 465.6094,400.9379 Q466.5469,400.9379 467.2031,400.6879 Q467.5938,400.5316 468.0156,400.0941 Q468.2813,399.8285 468.4297,399.7504 Q468.5781,399.6722 468.7813,399.6722 Q469.1094,399.6722 469.3672,399.9301 Q469.625,400.1879 469.625,400.5316 Q469.625,400.8754 469.2813,401.2816 Q468.7813,401.8597 467.9844,402.1879 Q466.9063,402.641 465.6094,402.641 Q464.0938,402.641 462.8906,402.016 Q461.9063,401.516 461.2188,400.4457 Q460.5313,399.3754 460.5313,398.0941 L460.5313,396.9379 Q460.5313,395.6097 461.1484,394.4613 Q461.7656,393.3129 462.8594,392.6957 Q463.9531,392.0785 465.1875,392.0785 Q465.9219,392.0785 466.5703,392.2426 Q467.2188,392.4066 467.7656,392.766 Z " fill="#000000"/><text fill="#000000" font-family="sans-serif" font-size="14" lengthAdjust="spacing" textLength="52" x="479" y="402.6195">Radians</text><line style="stroke:#181818;stroke-width:0.5;" x1="451" x2="533" y1="412.891" y2="412.891"/><line style="stroke:#181818;stroke-width:0.5;" x1="451" x2="533" y1="420.891" y2="420.891"/></g><!--MD5=[87692360eaa3c919f421134320de40ea]
class icao_units::Metres--><g id="elem_icao_units::Metres"><rect fill="#F1F1F1" height="48" id="icao_units::Metres" rx="2.5" ry="2.5" style="stroke:#181818;stroke-width:0.5;" width="75" x="450.5" y="577.891"/><ellipse cx="465.5" cy="593.891" fill="#ADD1B2" rx="11" ry="11" style="stroke:#181818;stroke-width:1.0;"/><path d="M468.2656,589.766 Q468.4219,589.5473 468.6094,589.4379 Q468.7969,589.3285 469.0156,589.3285 Q469.3906,589.3285 469.625,589.5863 Q469.8594,589.8441 469.8594,590.4535 L469.8594,591.9066 Q469.8594,592.516 469.625,592.7816 Q469.3906,593.0473 469.0156,593.0473 Q468.6719,593.0473 468.4688,592.8441 Q468.2656,592.6566 468.1563,592.141 Q468.1094,591.7816 467.9219,591.5941 Q467.5938,591.2191 466.9844,591.0004 Q466.375,590.7816 465.75,590.7816 Q464.9844,590.7816 464.3516,591.1098 Q463.7188,591.4379 463.2266,592.1879 Q462.7344,592.9379 462.7344,593.9691 L462.7344,595.0629 Q462.7344,596.2973 463.625,597.1176 Q464.5156,597.9379 466.1094,597.9379 Q467.0469,597.9379 467.7031,597.6879 Q468.0938,597.5316 468.5156,597.0941 Q468.7813,596.8285 468.9297,596.7504 Q469.0781,596.6723 469.2813,596.6723 Q469.6094,596.6723 469.8672,596.9301 Q470.125,597.1879 470.125,597.5316 Q470.125,597.8754 469.7813,598.2816 Q469.2813,598.8598 468.4844,599.1879 Q467.4063,599.641 466.1094,599.641 Q464.5938,599.641 463.3906,599.016 Q462.4063,598.516 461.7188,597.4457 Q461.0313,596.3754 461.0313,595.0941 L461.0313,593.9379 Q461.0313,592.6098 461.6484,591.4613 Q462.2656,590.3129 463.3594,589.6957 Q464.4531,589.0785 465.6875,589.0785 Q466.4219,589.0785 467.0703,589.2426 Q467.7188,589.4066 468.2656,589.766 Z " fill="#000000"/><text fill="#000000" font-family="sans-serif" font-size="14" lengthAdjust="spacing" textLength="43" x="479.5" y="599.6195">Metres</text><line style="stroke:#181818;stroke-width:0.5;" x1="451.5" x2="524.5" y1="609.891" y2="609.891"/><line style="stroke:#181818;stroke-width:0.5;" x1="451.5" x2="524.5" y1="617.891" y2="617.891"/></g><!--MD5=[b52a3edc25c5c4dde9468ecfc3793c65]
class icao_units::non_si::NauticalMiles--><g id="elem_icao_units::non_si::NauticalMiles"><rect codeLine="62" fill="#F1F1F1" height="48" id="icao_units::non_si::NauticalMiles" rx="2.5" ry="2.5" style="stroke:#181818;stroke-width:0.5;" width="114" x="561" y="577.891"/><ellipse cx="576" cy="593.891" fill="#ADD1B2" rx="11" ry="11" style="stroke:#181818;stroke-width:1.0;"/><path d="M578.7656,589.766 Q578.9219,589.5473 579.1094,589.4379 Q579.2969,589.3285 579.5156,589.3285 Q579.8906,589.3285 580.125,589.5863 Q580.3594,589.8441 580.3594,590.4535 L580.3594,591.9066 Q580.3594,592.516 580.125,592.7816 Q579.8906,593.0473 579.5156,593.0473 Q579.1719,593.0473 578.9688,592.8441 Q578.7656,592.6566 578.6563,592.141 Q578.6094,591.7816 578.4219,591.5941 Q578.0938,591.2191 577.4844,591.0004 Q576.875,590.7816 576.25,590.7816 Q575.4844,590.7816 574.8516,591.1098 Q574.2188,591.4379 573.7266,592.1879 Q573.2344,592.9379 573.2344,593.9691 L573.2344,595.0629 Q573.2344,596.2973 574.125,597.1176 Q575.0156,597.9379 576.6094,597.9379 Q577.5469,597.9379 578.2031,597.6879 Q578.5938,597.5316 579.0156,597.0941 Q579.2813,596.8285 579.4297,596.7504 Q579.5781,596.6723 579.7813,596.6723 Q580.1094,596.6723 580.3672,596.9301 Q580.625,597.1879 580.625,597.5316 Q580.625,597.8754 580.2813,598.2816 Q579.7813,598.8598 578.9844,599.1879 Q577.9063,599.641 576.6094,599.641 Q575.0938,599.641 573.8906,599.016 Q572.9063,598.516 572.2188,597.4457 Q571.5313,596.3754 571.5313,595.0941 L571.5313,593.9379 Q571.5313,592.6098 572.1484,591.4613 Q572.7656,590.3129 573.8594,589.6957 Q574.9531,589.0785 576.1875,589.0785 Q576.9219,589.0785 577.5703,589.2426 Q578.2188,589.4066 578.7656,589.766 Z " fill="#000000"/><text fill="#000000" font-family="sans-serif" font-size="14" lengthAdjust="spacing" textLength="82" x="590" y="599.6195">NauticalMiles</text><line style="stroke:#181818;stroke-width:0.5;" x1="562" x2="674" y1="609.891" y2="609.891"/><line style="stroke:#181818;stroke-width:0.5;" x1="562" x2="674" y1="617.891" y2="617.891"/></g><!--MD5=[b1724a843a9fe58d331be1bc93f5df9b]
reverse link icao_wgs84::Geodesic to icao_wgs84::Ellipsoid--><g id="link_icao_wgs84::Geodesic_icao_wgs84::Ellipsoid"><path codeLine="36" d="M182.008,280.59 C186.239,296.404 190.568,312.581 194.639,327.795 " fill="none" id="icao_wgs84::Geodesic-backto-icao_wgs84::Ellipsoid" style="stroke:#181818;stroke-width:1.0;"/><polygon fill="none" points="178.642,268.011,176.3286,274.841,181.7435,279.6033,184.0568,272.7733,178.642,268.011" style="stroke:#181818;stroke-width:1.0;"/></g><!--MD5=[573cf64baf618ac66bcc147e65103621]
link icao_wgs84::Geodesic to geodesic::functions--><g id="link_icao_wgs84::Geodesic_geodesic::functions"><path codeLine="37" d="M245.121,182.391 C256.874,182.391 268.627,182.391 280.38,182.391 " fill="none" id="icao_wgs84::Geodesic-geodesic::functions" style="stroke:#181818;stroke-width:1.0;stroke-dasharray:7.0,7.0;"/></g><!--MD5=[194f1b510307047d947ec355fe5c894f]
link icao_wgs84::Ellipsoid to ellipsoid::functions--><g id="link_icao_wgs84::Ellipsoid_ellipsoid::functions"><path codeLine="38" d="M258.001,482.121 C277.284,516.303 298.635,554.152 311.936,577.732 " fill="none" id="icao_wgs84::Ellipsoid-ellipsoid::functions" style="stroke:#181818;stroke-width:1.0;stroke-dasharray:7.0,7.0;"/></g><!--MD5=[5542173b9747ec67fb9f67d5cc2e3ee1]
link icao_wgs84::Ellipsoid to ellipsoid::wgs84--><g id="link_icao_wgs84::Ellipsoid_ellipsoid::wgs84"><path codeLine="39" d="M212.654,482.121 C211.603,516.303 210.438,554.152 209.713,577.732 " fill="none" id="icao_wgs84::Ellipsoid-ellipsoid::wgs84" style="stroke:#181818;stroke-width:1.0;stroke-dasharray:7.0,7.0;"/></g><!--MD5=[70c365df8022489c178c8a6e3ef62599]
link angle_sc::Angle to angle_sc::Degrees--><g id="link_angle_sc::Angle_angle_sc::Degrees"><path codeLine="56" d="M637.125,404.891 C648.685,404.891 660.244,404.891 671.804,404.891 " fill="none" id="angle_sc::Angle-angle_sc::Degrees" style="stroke:#181818;stroke-width:1.0;stroke-dasharray:7.0,7.0;"/></g><!--MD5=[d0e2f0eaccd6c68d3d6c4f814d08e541]
link icao_wgs84::Geodesic to unit_sphere::LatLong--><g id="link_icao_wgs84::Geodesic_unit_sphere::LatLong"><path codeLine="68" d="M201.917,96.562 C222.161,67.661 248.854,38.744 281.5,22.891 C316.282,6 331.545,11.514 368.5,22.891 C444.027,46.142 517.025,102.933 560.978,142.069 " fill="none" id="icao_wgs84::Geodesic-unit_sphere::LatLong" style="stroke:#181818;stroke-width:1.0;stroke-dasharray:7.0,7.0;"/></g><!--MD5=[34c604f8b2c3a7f2c10170adc3716663]
reverse link icao_wgs84::Geodesic to angle_sc::Angle--><g id="link_icao_wgs84::Geodesic_angle_sc::Angle"><path codeLine="69" d="M256.931,264.54 C259.279,265.715 261.636,266.834 264,267.891 C382.706,320.964 444.855,245.717 552,319.391 C567.531,330.07 579.131,347.173 587.311,363.208 " fill="none" id="icao_wgs84::Geodesic-backto-angle_sc::Angle" style="stroke:#181818;stroke-width:1.0;"/><polygon fill="#181818" points="245.289,258.237,248.6614,264.6109,255.8421,263.9494,252.4697,257.5755,245.289,258.237" style="stroke:#181818;stroke-width:1.0;"/></g><!--MD5=[af115cb2c9b07dfec736e49fdc6f9a92]
link icao_wgs84::Geodesic to angle_sc::Degrees--><g id="link_icao_wgs84::Geodesic_angle_sc::Degrees"><path codeLine="70" d="M245.14,258.58 C251.325,262.068 257.634,265.219 264,267.891 C425.617,335.734 504.857,228.95 655,319.391 C678.581,333.595 695.407,361.004 705.129,380.76 " fill="none" id="icao_wgs84::Geodesic-angle_sc::Degrees" style="stroke:#181818;stroke-width:1.0;stroke-dasharray:7.0,7.0;"/></g><!--MD5=[58fc40018cd638ddb278ade41fd1cc88]
reverse link icao_wgs84::Geodesic to angle_sc::Radians--><g id="link_icao_wgs84::Geodesic_angle_sc::Radians"><path codeLine="71" d="M256.366,263.539 C258.909,265.042 261.456,266.496 264,267.891 C324.334,300.971 352.062,282.274 410,319.391 C435.647,335.821 459.218,361.751 474.441,380.556 " fill="none" id="icao_wgs84::Geodesic-backto-angle_sc::Radians" style="stroke:#181818;stroke-width:1.0;"/><polygon fill="#181818" points="245.256,256.654,248.2487,263.2148,255.4558,262.9757,252.4631,256.4149,245.256,256.654" style="stroke:#181818;stroke-width:1.0;"/></g><!--MD5=[dc23d4472e4a51d394ed4a363282d455]
link icao_wgs84::Geodesic to icao_units::Metres--><g id="link_icao_wgs84::Geodesic_icao_units::Metres"><path codeLine="72" d="M245.126,254.081 C251.468,258.816 257.803,263.459 264,267.891 C298.092,292.272 314.913,288.281 343,319.391 C362.202,340.66 446.309,514.012 476.86,577.61 " fill="none" id="icao_wgs84::Geodesic-icao_units::Metres" style="stroke:#181818;stroke-width:1.0;stroke-dasharray:7.0,7.0;"/></g><!--MD5=[f112d9b75e8db7d9a674a68af7a9390a]
reverse link icao_wgs84::Ellipsoid to icao_units::Metres--><g id="link_icao_wgs84::Ellipsoid_icao_units::Metres"><path codeLine="73" d="M337.8,469.41 C346.953,473.744 356.09,477.949 365,481.891 C374.134,485.931 377.733,484.286 386,489.891 C421.526,513.977 453.395,552.757 471.713,577.52 " fill="none" id="icao_wgs84::Ellipsoid-backto-icao_units::Metres" style="stroke:#181818;stroke-width:1.0;"/><polygon fill="#181818" points="325.777,463.651,329.4601,469.8506,336.5993,468.8353,332.9163,462.6357,325.777,463.651" style="stroke:#181818;stroke-width:1.0;"/></g><!--MD5=[9f888f60d224d988089a814825072484]
reverse link unit_sphere::LatLong to angle_sc::Degrees--><g id="link_unit_sphere::LatLong_angle_sc::Degrees"><path codeLine="74" d="M629.691,235.939 C653.052,281.931 685.888,346.576 703.219,380.697 " fill="none" id="unit_sphere::LatLong-backto-angle_sc::Degrees" style="stroke:#181818;stroke-width:1.0;"/><polygon fill="#181818" points="623.673,224.091,622.824,231.2519,629.1075,234.7899,629.9565,227.6289,623.673,224.091" style="stroke:#181818;stroke-width:1.0;"/><text fill="#000000" font-family="sans-serif" font-size="13" lengthAdjust="spacing" textLength="7" x="692.3032" y="369.9874">2</text></g><!--MD5=[80aefba4e8acd5b766cb696f237d981e]
@startuml

'Copyright (c) 2024 Via Technology Ltd. All Rights Reserved.

' title Ellipsoid Class Diagram

set namespaceSeparator ::

    namespace icao_wgs84 {
        namespace geodesic {
        }

        class Geodesic {
            - beta
            - lon
            - azi
            - aux_length
            - ellipsoid
            + lat_long()
            + calculate_atd_and_xtd()
        }

        namespace ellipsoid {
            namespace coefficients {
            }
        }

        class Ellipsoid {
            - a
            - f
            + b()
            + one_minus_f()
            + calculate_parametric_latitude()
            + calculate_geodetic_latitude()
        }

        Geodesic o- - Ellipsoid
        Geodesic . geodesic::functions
        Ellipsoid . ellipsoid::functions
        Ellipsoid .. ellipsoid::wgs84
    }

    namespace unit_sphere {
        class LatLong {
            - lat
            - lon
        }
    }

    namespace angle_sc {
        
        class Angle {
            - sin
            - cos
        }

        Angle . Degrees
        ' Angle .. Radians
    }

    namespace icao_units {
        namespace non_si {
            class NauticalMiles {

            }
        }
    }

    icao_wgs84::Geodesic . unit_sphere::LatLong
    icao_wgs84::Geodesic *- - angle_sc::Angle
    icao_wgs84::Geodesic .. angle_sc::Degrees
    icao_wgs84::Geodesic *- - angle_sc::Radians
    icao_wgs84::Geodesic .. icao_units::Metres
    icao_wgs84::Ellipsoid *- -icao_units::Metres
    unit_sphere::LatLong *- - "2" angle_sc::Degrees
@enduml

@startuml



set namespaceSeparator ::

    namespace icao_wgs84 {
        namespace geodesic {
        }

        class Geodesic {
            - beta
            - lon
            - azi
            - aux_length
            - ellipsoid
            + lat_long()
            + calculate_atd_and_xtd()
        }

        namespace ellipsoid {
            namespace coefficients {
            }
        }

        class Ellipsoid {
            - a
            - f
            + b()
            + one_minus_f()
            + calculate_parametric_latitude()
            + calculate_geodetic_latitude()
        }

        Geodesic o- - Ellipsoid
        Geodesic . geodesic::functions
        Ellipsoid . ellipsoid::functions
        Ellipsoid .. ellipsoid::wgs84
    }

    namespace unit_sphere {
        class LatLong {
            - lat
            - lon
        }
    }

    namespace angle_sc {
        
        class Angle {
            - sin
            - cos
        }

        Angle . Degrees
    }

    namespace icao_units {
        namespace non_si {
            class NauticalMiles {

            }
        }
    }

    icao_wgs84::Geodesic . unit_sphere::LatLong
    icao_wgs84::Geodesic *- - angle_sc::Angle
    icao_wgs84::Geodesic .. angle_sc::Degrees
    icao_wgs84::Geodesic *- - angle_sc::Radians
    icao_wgs84::Geodesic .. icao_units::Metres
    icao_wgs84::Ellipsoid *- -icao_units::Metres
    unit_sphere::LatLong *- - "2" angle_sc::Degrees
@enduml

PlantUML version 1.2022.8(Sun Sep 25 10:00:33 BST 2022)
(GPL source distribution)
Java Runtime: Java(TM) SE Runtime Environment
JVM: Java HotSpot(TM) Client VM
Default Encoding: Cp1252
Language: en
Country: GB
--></g></svg>