<svg xmlns="http://www.w3.org/2000/svg" xmlns:xlink="http://www.w3.org/1999/xlink" contentStyleType="text/css" data-diagram-type="CLASS" height="648px" preserveAspectRatio="none" style="width:799px;height:648px;background:#FFFFFF;" version="1.1" viewBox="0 0 799 648" width="799px" zoomAndPan="magnify"><defs/><g><!--cluster icao_wgs84--><g id="cluster_icao_wgs84"><path d="M8.5,6.602 L89.0827,6.602 A3.75,3.75 0 0 1 91.5827,9.102 L98.5827,31.6699 L421.5,31.6699 A2.5,2.5 0 0 1 424,34.1699 L424,639.052 A2.5,2.5 0 0 1 421.5,641.552 L8.5,641.552 A2.5,2.5 0 0 1 6,639.052 L6,9.102 A2.5,2.5 0 0 1 8.5,6.602 " fill="#FFFFFF" fill-opacity="0.00000" style="stroke:#000000;stroke-width:1.5;"/><line style="stroke:#000000;stroke-width:1.5;" x1="6" x2="98.5827" y1="31.6699" y2="31.6699"/><text fill="#000000" font-family="sans-serif" font-size="14" font-weight="bold" lengthAdjust="spacing" textLength="79.5827" x="10" y="23.5679">icao_wgs84</text></g><!--cluster geodesic--><g id="cluster_geodesic"><path d="M87.5,73.342 L150.5198,73.342 A3.75,3.75 0 0 1 153.0198,75.842 L160.0198,98.4099 L208.5,98.4099 A2.5,2.5 0 0 1 211,100.9099 L211,172.842 A2.5,2.5 0 0 1 208.5,175.342 L87.5,175.342 A2.5,2.5 0 0 1 85,172.842 L85,75.842 A2.5,2.5 0 0 1 87.5,73.342 " fill="#FFFFFF" fill-opacity="0.00000" style="stroke:#000000;stroke-width:1.5;"/><line style="stroke:#000000;stroke-width:1.5;" x1="85" x2="160.0198" y1="98.4099" y2="98.4099"/><text fill="#000000" font-family="sans-serif" font-size="14" font-weight="bold" lengthAdjust="spacing" textLength="62.0198" x="89" y="90.3079">geodesic</text></g><!--cluster ellipsoid--><g id="cluster_ellipsoid"><path d="M32.5,505.412 L92.1773,505.412 A3.75,3.75 0 0 1 94.6773,507.912 L101.6773,530.4799 L397.5,530.4799 A2.5,2.5 0 0 1 400,532.9799 L400,615.052 A2.5,2.5 0 0 1 397.5,617.552 L32.5,617.552 A2.5,2.5 0 0 1 30,615.052 L30,507.912 A2.5,2.5 0 0 1 32.5,505.412 " fill="#FFFFFF" fill-opacity="0.00000" style="stroke:#000000;stroke-width:1.5;"/><line style="stroke:#000000;stroke-width:1.5;" x1="30" x2="101.6773" y1="530.4799" y2="530.4799"/><text fill="#000000" font-family="sans-serif" font-size="14" font-weight="bold" lengthAdjust="spacing" textLength="58.6773" x="34" y="522.3779">ellipsoid</text></g><!--cluster unit_sphere--><g id="cluster_unit_sphere"><path d="M562.5,54.272 L646.0402,54.272 A3.75,3.75 0 0 1 648.5402,56.772 L655.5402,79.3399 L675.5,79.3399 A2.5,2.5 0 0 1 678,81.8399 L678,191.902 A2.5,2.5 0 0 1 675.5,194.402 L562.5,194.402 A2.5,2.5 0 0 1 560,191.902 L560,56.772 A2.5,2.5 0 0 1 562.5,54.272 " fill="#FFFFFF" fill-opacity="0.00000" style="stroke:#000000;stroke-width:1.5;"/><line style="stroke:#000000;stroke-width:1.5;" x1="560" x2="655.5402" y1="79.3399" y2="79.3399"/><text fill="#000000" font-family="sans-serif" font-size="14" font-weight="bold" lengthAdjust="spacing" textLength="82.5402" x="564" y="71.2379">unit_sphere</text></g><!--cluster angle_sc--><g id="cluster_angle_sc"><path d="M450.5,286.212 L511.2658,286.212 A3.75,3.75 0 0 1 513.7658,288.712 L520.7658,311.2799 L789.5,311.2799 A2.5,2.5 0 0 1 792,313.7799 L792,423.852 A2.5,2.5 0 0 1 789.5,426.352 L450.5,426.352 A2.5,2.5 0 0 1 448,423.852 L448,288.712 A2.5,2.5 0 0 1 450.5,286.212 " fill="#FFFFFF" fill-opacity="0.00000" style="stroke:#000000;stroke-width:1.5;"/><line style="stroke:#000000;stroke-width:1.5;" x1="448" x2="520.7658" y1="311.2799" y2="311.2799"/><text fill="#000000" font-family="sans-serif" font-size="14" font-weight="bold" lengthAdjust="spacing" textLength="59.7658" x="452" y="303.1779">angle_sc</text></g><!--cluster icao_units--><g id="cluster_icao_units"><path d="M450.5,464.482 L521.4227,464.482 A3.75,3.75 0 0 1 523.9227,466.982 L530.9227,489.5499 L734.5,489.5499 A2.5,2.5 0 0 1 737,492.0499 L737,633.982 A2.5,2.5 0 0 1 734.5,636.482 L450.5,636.482 A2.5,2.5 0 0 1 448,633.982 L448,466.982 A2.5,2.5 0 0 1 450.5,464.482 " fill="#FFFFFF" fill-opacity="0.00000" style="stroke:#000000;stroke-width:1.5;"/><line style="stroke:#000000;stroke-width:1.5;" x1="448" x2="530.9227" y1="489.5499" y2="489.5499"/><text fill="#000000" font-family="sans-serif" font-size="14" font-weight="bold" lengthAdjust="spacing" textLength="69.9227" x="452" y="481.4479">icao_units</text></g><!--cluster non_si--><g id="cluster_non_si"><path d="M474.5,510.482 L520.4328,510.482 A3.75,3.75 0 0 1 522.9328,512.982 L529.9328,535.5499 L621.5,535.5499 A2.5,2.5 0 0 1 624,538.0499 L624,609.982 A2.5,2.5 0 0 1 621.5,612.482 L474.5,612.482 A2.5,2.5 0 0 1 472,609.982 L472,512.982 A2.5,2.5 0 0 1 474.5,510.482 " fill="#FFFFFF" fill-opacity="0.00000" style="stroke:#000000;stroke-width:1.5;"/><line style="stroke:#000000;stroke-width:1.5;" x1="472" x2="529.9328" y1="535.5499" y2="535.5499"/><text fill="#000000" font-family="sans-serif" font-size="14" font-weight="bold" lengthAdjust="spacing" textLength="44.9328" x="476" y="527.4479">non_si</text></g><!--class GeodesicSegment--><g id="elem_GeodesicSegment"><rect codeLine="12" fill="#F1F1F1" height="181.4754" id="GeodesicSegment" rx="2.5" ry="2.5" style="stroke:#181818;stroke-width:0.5;" width="178.7254" x="229.64" y="44.602"/><ellipse cx="257.1229" cy="60.602" fill="#ADD1B2" rx="11" ry="11" style="stroke:#181818;stroke-width:1;"/><path d="M257.2323,56.1332 Q256.3104,56.1332 255.5761,56.4457 Q254.8573,56.7582 254.3573,57.352 Q253.8573,57.9301 253.5761,58.8051 Q253.3104,59.6801 253.3104,60.7739 Q253.3104,62.2114 253.7479,63.2582 Q254.2011,64.3051 255.0448,64.852 Q255.9042,65.3989 257.2167,65.3989 Q257.9979,65.3989 258.6854,65.2739 Q259.3886,65.1332 260.3886,64.8207 L260.3886,66.6957 Q259.5292,67.0239 258.7636,67.1489 Q258.0136,67.2739 256.9979,67.2739 Q255.0761,67.2739 253.7636,66.477 Q252.4667,65.6645 251.8104,64.1957 Q251.1542,62.7114 251.1542,60.7426 Q251.1542,59.3207 251.5448,58.1489 Q251.9511,56.9614 252.7323,56.0864 Q253.5136,55.2114 254.6542,54.7426 Q255.7948,54.2582 257.2636,54.2582 Q258.2167,54.2582 259.1073,54.4614 Q260.0136,54.6489 260.9511,55.1176 L260.1229,56.8989 Q259.3417,56.5239 258.6854,56.3364 Q258.0292,56.1332 257.2323,56.1332 Z " fill="#000000"/><text fill="#000000" font-family="sans-serif" font-size="14" lengthAdjust="spacing" textLength="118.9855" x="273.8969" y="66.034">GeodesicSegment</text><line style="stroke:#181818;stroke-width:0.5;" x1="230.64" x2="407.3654" y1="76.602" y2="76.602"/><rect fill="#FFFFFF" fill-opacity="0.00000" height="6" style="stroke:#C82930;stroke-width:1;" width="6" x="237.64" y="88.6359"/><text fill="#000000" font-family="sans-serif" font-size="14" lengthAdjust="spacing" textLength="29.4139" x="249.64" y="95.5679">beta</text><rect fill="#FFFFFF" fill-opacity="0.00000" height="6" style="stroke:#C82930;stroke-width:1;" width="6" x="237.64" y="107.7039"/><text fill="#000000" font-family="sans-serif" font-size="14" lengthAdjust="spacing" textLength="20.7339" x="249.64" y="114.6358">lon</text><rect fill="#FFFFFF" fill-opacity="0.00000" height="6" style="stroke:#C82930;stroke-width:1;" width="6" x="237.64" y="126.7718"/><text fill="#000000" font-family="sans-serif" font-size="14" lengthAdjust="spacing" textLength="18.0459" x="249.64" y="133.7038">azi</text><rect fill="#FFFFFF" fill-opacity="0.00000" height="6" style="stroke:#C82930;stroke-width:1;" width="6" x="237.64" y="145.8397"/><text fill="#000000" font-family="sans-serif" font-size="14" lengthAdjust="spacing" textLength="72.6037" x="249.64" y="152.7717">arc_length</text><rect fill="#FFFFFF" fill-opacity="0.00000" height="6" style="stroke:#C82930;stroke-width:1;" width="6" x="237.64" y="164.9076"/><text fill="#000000" font-family="sans-serif" font-size="14" lengthAdjust="spacing" textLength="54.7398" x="249.64" y="171.8396">ellipsoid</text><line style="stroke:#181818;stroke-width:0.5;" x1="230.64" x2="407.3654" y1="179.9416" y2="179.9416"/><ellipse cx="240.64" cy="194.9755" fill="#84BE84" rx="3" ry="3" style="stroke:#038048;stroke-width:1;"/><text fill="#000000" font-family="sans-serif" font-size="14" lengthAdjust="spacing" textLength="60.4798" x="249.64" y="198.9075">lat_long()</text><ellipse cx="240.64" cy="214.0434" fill="#84BE84" rx="3" ry="3" style="stroke:#038048;stroke-width:1;"/><text fill="#000000" font-family="sans-serif" font-size="14" lengthAdjust="spacing" textLength="152.7254" x="249.64" y="217.9754">calculate_atd_and_xtd()</text></g><!--class Ellipsoid--><g id="elem_Ellipsoid"><rect codeLine="27" fill="#F1F1F1" height="162.4075" id="Ellipsoid" rx="2.5" ry="2.5" style="stroke:#181818;stroke-width:0.5;" width="227.4032" x="106.3" y="286.072"/><ellipse cx="188.4377" cy="302.072" fill="#ADD1B2" rx="11" ry="11" style="stroke:#181818;stroke-width:1;"/><path d="M188.5471,297.6032 Q187.6252,297.6032 186.8908,297.9157 Q186.1721,298.2282 185.6721,298.822 Q185.1721,299.4001 184.8908,300.2751 Q184.6252,301.1501 184.6252,302.2439 Q184.6252,303.6814 185.0627,304.7282 Q185.5158,305.7751 186.3596,306.322 Q187.219,306.8689 188.5315,306.8689 Q189.3127,306.8689 190.0002,306.7439 Q190.7033,306.6032 191.7033,306.2907 L191.7033,308.1657 Q190.844,308.4939 190.0783,308.6189 Q189.3283,308.7439 188.3127,308.7439 Q186.3908,308.7439 185.0783,307.947 Q183.7815,307.1345 183.1252,305.6657 Q182.469,304.1814 182.469,302.2126 Q182.469,300.7907 182.8596,299.6189 Q183.2658,298.4314 184.0471,297.5564 Q184.8283,296.6814 185.969,296.2126 Q187.1096,295.7282 188.5783,295.7282 Q189.5315,295.7282 190.4221,295.9314 Q191.3283,296.1189 192.2658,296.5876 L191.4377,298.3689 Q190.6565,297.9939 190.0002,297.8064 Q189.344,297.6032 188.5471,297.6032 Z " fill="#000000"/><text fill="#000000" font-family="sans-serif" font-size="14" lengthAdjust="spacing" textLength="54.6278" x="208.9377" y="307.504">Ellipsoid</text><line style="stroke:#181818;stroke-width:0.5;" x1="107.3" x2="332.7032" y1="318.072" y2="318.072"/><rect fill="#FFFFFF" fill-opacity="0.00000" height="6" style="stroke:#C82930;stroke-width:1;" width="6" x="114.3" y="330.1059"/><text fill="#000000" font-family="sans-serif" font-size="14" lengthAdjust="spacing" textLength="7.854" x="126.3" y="337.0379">a</text><rect fill="#FFFFFF" fill-opacity="0.00000" height="6" style="stroke:#C82930;stroke-width:1;" width="6" x="114.3" y="349.1739"/><text fill="#000000" font-family="sans-serif" font-size="14" lengthAdjust="spacing" textLength="4.816" x="126.3" y="356.1058">f</text><line style="stroke:#181818;stroke-width:0.5;" x1="107.3" x2="332.7032" y1="364.2078" y2="364.2078"/><ellipse cx="117.3" cy="379.2418" fill="#84BE84" rx="3" ry="3" style="stroke:#038048;stroke-width:1;"/><text fill="#000000" font-family="sans-serif" font-size="14" lengthAdjust="spacing" textLength="17.0099" x="126.3" y="383.1738">b()</text><ellipse cx="117.3" cy="398.3097" fill="#84BE84" rx="3" ry="3" style="stroke:#038048;stroke-width:1;"/><text fill="#000000" font-family="sans-serif" font-size="14" lengthAdjust="spacing" textLength="91.3776" x="126.3" y="402.2417">one_minus_f()</text><ellipse cx="117.3" cy="417.3776" fill="#84BE84" rx="3" ry="3" style="stroke:#038048;stroke-width:1;"/><text fill="#000000" font-family="sans-serif" font-size="14" lengthAdjust="spacing" textLength="201.4032" x="126.3" y="421.3096">calculate_parametric_latitude()</text><ellipse cx="117.3" cy="436.4455" fill="#84BE84" rx="3" ry="3" style="stroke:#038048;stroke-width:1;"/><text fill="#000000" font-family="sans-serif" font-size="14" lengthAdjust="spacing" textLength="186.0173" x="126.3" y="440.3775">calculate_geodetic_latitude()</text></g><!--class functions--><g id="elem_functions"><rect fill="#F1F1F1" height="48" id="functions" rx="2.5" ry="2.5" style="stroke:#181818;stroke-width:0.5;" width="93.3338" x="101.33" y="111.342"/><ellipse cx="116.33" cy="127.342" fill="#ADD1B2" rx="11" ry="11" style="stroke:#181818;stroke-width:1;"/><path d="M116.4394,122.8732 Q115.5175,122.8732 114.7831,123.1857 Q114.0644,123.4982 113.5644,124.092 Q113.0644,124.6701 112.7831,125.5451 Q112.5175,126.4201 112.5175,127.5139 Q112.5175,128.9514 112.955,129.9982 Q113.4081,131.0451 114.2519,131.592 Q115.1113,132.1389 116.4238,132.1389 Q117.205,132.1389 117.8925,132.0139 Q118.5956,131.8732 119.5956,131.5607 L119.5956,133.4357 Q118.7363,133.7639 117.9706,133.8889 Q117.2206,134.0139 116.205,134.0139 Q114.2831,134.0139 112.9706,133.217 Q111.6738,132.4045 111.0175,130.9357 Q110.3613,129.4514 110.3613,127.4826 Q110.3613,126.0607 110.7519,124.8889 Q111.1581,123.7014 111.9394,122.8264 Q112.7206,121.9514 113.8613,121.4826 Q115.0019,120.9982 116.4706,120.9982 Q117.4238,120.9982 118.3144,121.2014 Q119.2206,121.3889 120.1581,121.8576 L119.33,123.6389 Q118.5488,123.2639 117.8925,123.0764 Q117.2363,122.8732 116.4394,122.8732 Z " fill="#000000"/><text fill="#000000" font-family="sans-serif" font-size="14" lengthAdjust="spacing" textLength="61.3338" x="130.33" y="132.774">functions</text><line style="stroke:#181818;stroke-width:0.5;" x1="102.33" x2="193.6638" y1="143.342" y2="143.342"/><line style="stroke:#181818;stroke-width:0.5;" x1="102.33" x2="193.6638" y1="151.342" y2="151.342"/></g><!--class functions--><g id="elem_functions"><rect fill="#F1F1F1" height="48" id="functions" rx="2.5" ry="2.5" style="stroke:#181818;stroke-width:0.5;" width="93.3338" x="46.33" y="548.482"/><ellipse cx="61.33" cy="564.482" fill="#ADD1B2" rx="11" ry="11" style="stroke:#181818;stroke-width:1;"/><path d="M61.4394,560.0132 Q60.5175,560.0132 59.7831,560.3257 Q59.0644,560.6382 58.5644,561.232 Q58.0644,561.8101 57.7831,562.6851 Q57.5175,563.5601 57.5175,564.6539 Q57.5175,566.0914 57.955,567.1382 Q58.4081,568.1851 59.2519,568.732 Q60.1113,569.2789 61.4238,569.2789 Q62.205,569.2789 62.8925,569.1539 Q63.5956,569.0132 64.5956,568.7007 L64.5956,570.5757 Q63.7363,570.9039 62.9706,571.0289 Q62.2206,571.1539 61.205,571.1539 Q59.2831,571.1539 57.9706,570.357 Q56.6738,569.5445 56.0175,568.0757 Q55.3613,566.5914 55.3613,564.6226 Q55.3613,563.2007 55.7519,562.0289 Q56.1581,560.8414 56.9394,559.9664 Q57.7206,559.0914 58.8613,558.6226 Q60.0019,558.1382 61.4706,558.1382 Q62.4238,558.1382 63.3144,558.3414 Q64.2206,558.5289 65.1581,558.9976 L64.33,560.7789 Q63.5488,560.4039 62.8925,560.2164 Q62.2363,560.0132 61.4394,560.0132 Z " fill="#000000"/><text fill="#000000" font-family="sans-serif" font-size="14" lengthAdjust="spacing" textLength="61.3338" x="75.33" y="569.914">functions</text><line style="stroke:#181818;stroke-width:0.5;" x1="47.33" x2="138.6638" y1="580.482" y2="580.482"/><line style="stroke:#181818;stroke-width:0.5;" x1="47.33" x2="138.6638" y1="588.482" y2="588.482"/></g><!--class wgs84--><g id="elem_wgs84"><rect fill="#F1F1F1" height="48" id="wgs84" rx="2.5" ry="2.5" style="stroke:#181818;stroke-width:0.5;" width="74.3358" x="174.83" y="548.482"/><ellipse cx="189.83" cy="564.482" fill="#ADD1B2" rx="11" ry="11" style="stroke:#181818;stroke-width:1;"/><path d="M189.9394,560.0132 Q189.0175,560.0132 188.2831,560.3257 Q187.5644,560.6382 187.0644,561.232 Q186.5644,561.8101 186.2831,562.6851 Q186.0175,563.5601 186.0175,564.6539 Q186.0175,566.0914 186.455,567.1382 Q186.9081,568.1851 187.7519,568.732 Q188.6113,569.2789 189.9238,569.2789 Q190.705,569.2789 191.3925,569.1539 Q192.0956,569.0132 193.0956,568.7007 L193.0956,570.5757 Q192.2363,570.9039 191.4706,571.0289 Q190.7206,571.1539 189.705,571.1539 Q187.7831,571.1539 186.4706,570.357 Q185.1738,569.5445 184.5175,568.0757 Q183.8613,566.5914 183.8613,564.6226 Q183.8613,563.2007 184.2519,562.0289 Q184.6581,560.8414 185.4394,559.9664 Q186.2206,559.0914 187.3613,558.6226 Q188.5019,558.1382 189.9706,558.1382 Q190.9238,558.1382 191.8144,558.3414 Q192.7206,558.5289 193.6581,558.9976 L192.83,560.7789 Q192.0488,560.4039 191.3925,560.2164 Q190.7363,560.0132 189.9394,560.0132 Z " fill="#000000"/><text fill="#000000" font-family="sans-serif" font-size="14" lengthAdjust="spacing" textLength="42.3358" x="203.83" y="569.914">wgs84</text><line style="stroke:#181818;stroke-width:0.5;" x1="175.83" x2="248.1658" y1="580.482" y2="580.482"/><line style="stroke:#181818;stroke-width:0.5;" x1="175.83" x2="248.1658" y1="588.482" y2="588.482"/></g><path d="M286.39,543.412 L367.6097,543.412 A3.75,3.75 0 0 1 370.1097,545.912 L377.1097,568.4799 L381.6097,568.4799 A2.5,2.5 0 0 1 384.1097,570.9799 L384.1097,599.0478 A2.5,2.5 0 0 1 381.6097,601.5478 L286.39,601.5478 A2.5,2.5 0 0 1 283.89,599.0478 L283.89,545.912 A2.5,2.5 0 0 1 286.39,543.412 " fill="#F1F1F1" style="stroke:#181818;stroke-width:0.5;"/><line style="stroke:#181818;stroke-width:0.5;" x1="283.89" x2="377.1097" y1="568.4799" y2="568.4799"/><text fill="#000000" font-family="sans-serif" font-size="14" font-weight="bold" lengthAdjust="spacing" textLength="80.2197" x="287.89" y="560.3779">coefficients</text><!--class LatLong--><g id="elem_LatLong"><rect codeLine="43" fill="#F1F1F1" height="86.1358" id="LatLong" rx="2.5" ry="2.5" style="stroke:#181818;stroke-width:0.5;" width="85.3118" x="576.34" y="92.272"/><ellipse cx="591.34" cy="108.272" fill="#ADD1B2" rx="11" ry="11" style="stroke:#181818;stroke-width:1;"/><path d="M591.4494,103.8032 Q590.5275,103.8032 589.7931,104.1157 Q589.0744,104.4282 588.5744,105.022 Q588.0744,105.6001 587.7931,106.4751 Q587.5275,107.3501 587.5275,108.4439 Q587.5275,109.8814 587.965,110.9282 Q588.4181,111.9751 589.2619,112.522 Q590.1213,113.0689 591.4338,113.0689 Q592.215,113.0689 592.9025,112.9439 Q593.6056,112.8032 594.6056,112.4907 L594.6056,114.3657 Q593.7463,114.6939 592.9806,114.8189 Q592.2306,114.9439 591.215,114.9439 Q589.2931,114.9439 587.9806,114.147 Q586.6838,113.3345 586.0275,111.8657 Q585.3713,110.3814 585.3713,108.4126 Q585.3713,106.9907 585.7619,105.8189 Q586.1681,104.6314 586.9494,103.7564 Q587.7306,102.8814 588.8713,102.4126 Q590.0119,101.9282 591.4806,101.9282 Q592.4338,101.9282 593.3244,102.1314 Q594.2306,102.3189 595.1681,102.7876 L594.34,104.5689 Q593.5588,104.1939 592.9025,104.0064 Q592.2463,103.8032 591.4494,103.8032 Z " fill="#000000"/><text fill="#000000" font-family="sans-serif" font-size="14" lengthAdjust="spacing" textLength="53.3118" x="605.34" y="113.704">LatLong</text><line style="stroke:#181818;stroke-width:0.5;" x1="577.34" x2="660.6518" y1="124.272" y2="124.272"/><rect fill="#FFFFFF" fill-opacity="0.00000" height="6" style="stroke:#C82930;stroke-width:1;" width="6" x="584.34" y="136.3059"/><text fill="#000000" font-family="sans-serif" font-size="14" lengthAdjust="spacing" textLength="16.5199" x="596.34" y="143.2379">lat</text><rect fill="#FFFFFF" fill-opacity="0.00000" height="6" style="stroke:#C82930;stroke-width:1;" width="6" x="584.34" y="155.3739"/><text fill="#000000" font-family="sans-serif" font-size="14" lengthAdjust="spacing" textLength="20.7339" x="596.34" y="162.3058">lon</text><line style="stroke:#181818;stroke-width:0.5;" x1="577.34" x2="660.6518" y1="170.4078" y2="170.4078"/></g><!--class Angle--><g id="elem_Angle"><rect codeLine="51" fill="#F1F1F1" height="86.1358" id="Angle" rx="2.5" ry="2.5" style="stroke:#181818;stroke-width:0.5;" width="69.7159" x="464.14" y="324.212"/><ellipse cx="479.14" cy="340.212" fill="#ADD1B2" rx="11" ry="11" style="stroke:#181818;stroke-width:1;"/><path d="M479.2494,335.7432 Q478.3275,335.7432 477.5931,336.0557 Q476.8744,336.3682 476.3744,336.962 Q475.8744,337.5401 475.5931,338.4151 Q475.3275,339.2901 475.3275,340.3839 Q475.3275,341.8214 475.765,342.8682 Q476.2181,343.9151 477.0619,344.462 Q477.9213,345.0089 479.2338,345.0089 Q480.015,345.0089 480.7025,344.8839 Q481.4056,344.7432 482.4056,344.4307 L482.4056,346.3057 Q481.5463,346.6339 480.7806,346.7589 Q480.0306,346.8839 479.015,346.8839 Q477.0931,346.8839 475.7806,346.087 Q474.4838,345.2745 473.8275,343.8057 Q473.1713,342.3214 473.1713,340.3526 Q473.1713,338.9307 473.5619,337.7589 Q473.9681,336.5714 474.7494,335.6964 Q475.5306,334.8214 476.6713,334.3526 Q477.8119,333.8682 479.2806,333.8682 Q480.2338,333.8682 481.1244,334.0714 Q482.0306,334.2589 482.9681,334.7276 L482.14,336.5089 Q481.3588,336.1339 480.7025,335.9464 Q480.0463,335.7432 479.2494,335.7432 Z " fill="#000000"/><text fill="#000000" font-family="sans-serif" font-size="14" lengthAdjust="spacing" textLength="37.7159" x="493.14" y="345.644">Angle</text><line style="stroke:#181818;stroke-width:0.5;" x1="465.14" x2="532.8559" y1="356.212" y2="356.212"/><rect fill="#FFFFFF" fill-opacity="0.00000" height="6" style="stroke:#C82930;stroke-width:1;" width="6" x="472.14" y="368.2459"/><text fill="#000000" font-family="sans-serif" font-size="14" lengthAdjust="spacing" textLength="18.9699" x="484.14" y="375.1779">sin</text><rect fill="#FFFFFF" fill-opacity="0.00000" height="6" style="stroke:#C82930;stroke-width:1;" width="6" x="472.14" y="387.3139"/><text fill="#000000" font-family="sans-serif" font-size="14" lengthAdjust="spacing" textLength="21.8959" x="484.14" y="394.2458">cos</text><line style="stroke:#181818;stroke-width:0.5;" x1="465.14" x2="532.8559" y1="402.3478" y2="402.3478"/></g><!--class Degrees--><g id="elem_Degrees"><rect fill="#F1F1F1" height="48" id="Degrees" rx="2.5" ry="2.5" style="stroke:#181818;stroke-width:0.5;" width="87.0058" x="688.5" y="343.282"/><ellipse cx="703.5" cy="359.282" fill="#ADD1B2" rx="11" ry="11" style="stroke:#181818;stroke-width:1;"/><path d="M703.6094,354.8132 Q702.6875,354.8132 701.9531,355.1257 Q701.2344,355.4382 700.7344,356.032 Q700.2344,356.6101 699.9531,357.4851 Q699.6875,358.3601 699.6875,359.4539 Q699.6875,360.8914 700.125,361.9382 Q700.5781,362.9851 701.4219,363.532 Q702.2813,364.0789 703.5938,364.0789 Q704.375,364.0789 705.0625,363.9539 Q705.7656,363.8132 706.7656,363.5007 L706.7656,365.3757 Q705.9063,365.7039 705.1406,365.8289 Q704.3906,365.9539 703.375,365.9539 Q701.4531,365.9539 700.1406,365.157 Q698.8438,364.3445 698.1875,362.8757 Q697.5313,361.3914 697.5313,359.4226 Q697.5313,358.0007 697.9219,356.8289 Q698.3281,355.6414 699.1094,354.7664 Q699.8906,353.8914 701.0313,353.4226 Q702.1719,352.9382 703.6406,352.9382 Q704.5938,352.9382 705.4844,353.1414 Q706.3906,353.3289 707.3281,353.7976 L706.5,355.5789 Q705.7188,355.2039 705.0625,355.0164 Q704.4063,354.8132 703.6094,354.8132 Z " fill="#000000"/><text fill="#000000" font-family="sans-serif" font-size="14" lengthAdjust="spacing" textLength="55.0058" x="717.5" y="364.714">Degrees</text><line style="stroke:#181818;stroke-width:0.5;" x1="689.5" x2="774.5058" y1="375.282" y2="375.282"/><line style="stroke:#181818;stroke-width:0.5;" x1="689.5" x2="774.5058" y1="383.282" y2="383.282"/></g><!--class Radians--><g id="elem_Radians"><rect fill="#F1F1F1" height="48" id="Radians" rx="2.5" ry="2.5" style="stroke:#181818;stroke-width:0.5;" width="83.9958" x="569" y="343.282"/><ellipse cx="584" cy="359.282" fill="#ADD1B2" rx="11" ry="11" style="stroke:#181818;stroke-width:1;"/><path d="M584.1094,354.8132 Q583.1875,354.8132 582.4531,355.1257 Q581.7344,355.4382 581.2344,356.032 Q580.7344,356.6101 580.4531,357.4851 Q580.1875,358.3601 580.1875,359.4539 Q580.1875,360.8914 580.625,361.9382 Q581.0781,362.9851 581.9219,363.532 Q582.7813,364.0789 584.0938,364.0789 Q584.875,364.0789 585.5625,363.9539 Q586.2656,363.8132 587.2656,363.5007 L587.2656,365.3757 Q586.4063,365.7039 585.6406,365.8289 Q584.8906,365.9539 583.875,365.9539 Q581.9531,365.9539 580.6406,365.157 Q579.3438,364.3445 578.6875,362.8757 Q578.0313,361.3914 578.0313,359.4226 Q578.0313,358.0007 578.4219,356.8289 Q578.8281,355.6414 579.6094,354.7664 Q580.3906,353.8914 581.5313,353.4226 Q582.6719,352.9382 584.1406,352.9382 Q585.0938,352.9382 585.9844,353.1414 Q586.8906,353.3289 587.8281,353.7976 L587,355.5789 Q586.2188,355.2039 585.5625,355.0164 Q584.9063,354.8132 584.1094,354.8132 Z " fill="#000000"/><text fill="#000000" font-family="sans-serif" font-size="14" lengthAdjust="spacing" textLength="51.9958" x="598" y="364.714">Radians</text><line style="stroke:#181818;stroke-width:0.5;" x1="570" x2="651.9958" y1="375.282" y2="375.282"/><line style="stroke:#181818;stroke-width:0.5;" x1="570" x2="651.9958" y1="383.282" y2="383.282"/></g><!--class Metres--><g id="elem_Metres"><rect fill="#F1F1F1" height="48" id="Metres" rx="2.5" ry="2.5" style="stroke:#181818;stroke-width:0.5;" width="78.0318" x="642.98" y="548.482"/><ellipse cx="657.98" cy="564.482" fill="#ADD1B2" rx="11" ry="11" style="stroke:#181818;stroke-width:1;"/><path d="M658.0894,560.0132 Q657.1675,560.0132 656.4331,560.3257 Q655.7144,560.6382 655.2144,561.232 Q654.7144,561.8101 654.4331,562.6851 Q654.1675,563.5601 654.1675,564.6539 Q654.1675,566.0914 654.605,567.1382 Q655.0581,568.1851 655.9019,568.732 Q656.7613,569.2789 658.0738,569.2789 Q658.855,569.2789 659.5425,569.1539 Q660.2456,569.0132 661.2456,568.7007 L661.2456,570.5757 Q660.3863,570.9039 659.6206,571.0289 Q658.8706,571.1539 657.855,571.1539 Q655.9331,571.1539 654.6206,570.357 Q653.3238,569.5445 652.6675,568.0757 Q652.0113,566.5914 652.0113,564.6226 Q652.0113,563.2007 652.4019,562.0289 Q652.8081,560.8414 653.5894,559.9664 Q654.3706,559.0914 655.5113,558.6226 Q656.6519,558.1382 658.1206,558.1382 Q659.0738,558.1382 659.9644,558.3414 Q660.8706,558.5289 661.8081,558.9976 L660.98,560.7789 Q660.1988,560.4039 659.5425,560.2164 Q658.8863,560.0132 658.0894,560.0132 Z " fill="#000000"/><text fill="#000000" font-family="sans-serif" font-size="14" lengthAdjust="spacing" textLength="46.0318" x="671.98" y="569.914">Metres</text><line style="stroke:#181818;stroke-width:0.5;" x1="643.98" x2="720.0118" y1="580.482" y2="580.482"/><line style="stroke:#181818;stroke-width:0.5;" x1="643.98" x2="720.0118" y1="588.482" y2="588.482"/></g><!--class NauticalMiles--><g id="elem_NauticalMiles"><rect codeLine="62" fill="#F1F1F1" height="48" id="NauticalMiles" rx="2.5" ry="2.5" style="stroke:#181818;stroke-width:0.5;" width="120.5217" x="487.74" y="548.482"/><ellipse cx="502.74" cy="564.482" fill="#ADD1B2" rx="11" ry="11" style="stroke:#181818;stroke-width:1;"/><path d="M502.8494,560.0132 Q501.9275,560.0132 501.1931,560.3257 Q500.4744,560.6382 499.9744,561.232 Q499.4744,561.8101 499.1931,562.6851 Q498.9275,563.5601 498.9275,564.6539 Q498.9275,566.0914 499.365,567.1382 Q499.8181,568.1851 500.6619,568.732 Q501.5213,569.2789 502.8338,569.2789 Q503.615,569.2789 504.3025,569.1539 Q505.0056,569.0132 506.0056,568.7007 L506.0056,570.5757 Q505.1463,570.9039 504.3806,571.0289 Q503.6306,571.1539 502.615,571.1539 Q500.6931,571.1539 499.3806,570.357 Q498.0838,569.5445 497.4275,568.0757 Q496.7713,566.5914 496.7713,564.6226 Q496.7713,563.2007 497.1619,562.0289 Q497.5681,560.8414 498.3494,559.9664 Q499.1306,559.0914 500.2713,558.6226 Q501.4119,558.1382 502.8806,558.1382 Q503.8338,558.1382 504.7244,558.3414 Q505.6306,558.5289 506.5681,558.9976 L505.74,560.7789 Q504.9588,560.4039 504.3025,560.2164 Q503.6463,560.0132 502.8494,560.0132 Z " fill="#000000"/><text fill="#000000" font-family="sans-serif" font-size="14" lengthAdjust="spacing" textLength="88.5217" x="516.74" y="569.914">NauticalMiles</text><line style="stroke:#181818;stroke-width:0.5;" x1="488.74" x2="607.2617" y1="580.482" y2="580.482"/><line style="stroke:#181818;stroke-width:0.5;" x1="488.74" x2="607.2617" y1="588.482" y2="588.482"/></g><!--reverse link GeodesicSegment to Ellipsoid--><g id="link_GeodesicSegment_Ellipsoid"><path codeLine="36" d="M275.4125,237.5829 C267.0125,257.0829 262.93,266.562 254.71,285.662 " fill="#FFFFFF" fill-opacity="0.00000" id="GeodesicSegment-backto-Ellipsoid" style="stroke:#181818;stroke-width:1;"/><polygon fill="#FFFFFF" fill-opacity="0.00000" points="280.16,226.562,274.1126,230.49,275.4125,237.5829,281.4599,233.655,280.16,226.562" style="stroke:#181818;stroke-width:1;"/></g><!--link GeodesicSegment to functions--><g id="link_GeodesicSegment_functions"><path codeLine="37" d="M229.46,135.342 C218,135.342 206.55,135.342 195.09,135.342 " fill="#FFFFFF" fill-opacity="0.00000" id="GeodesicSegment-functions" style="stroke:#181818;stroke-width:1;stroke-dasharray:7.0,7.0;"/></g><!--link Ellipsoid to functions--><g id="link_Ellipsoid_functions"><path codeLine="38" d="M161.95,448.782 C160.26,451.372 158.61,453.942 157,456.482 C137.46,487.382 117.34,524.582 105,548.132 " fill="#FFFFFF" fill-opacity="0.00000" id="Ellipsoid-functions" style="stroke:#181818;stroke-width:1;stroke-dasharray:7.0,7.0;"/></g><!--link Ellipsoid to wgs84--><g id="link_Ellipsoid_wgs84"><path codeLine="39" d="M216.83,448.882 C215.42,484.562 213.88,523.852 212.92,548.102 " fill="#FFFFFF" fill-opacity="0.00000" id="Ellipsoid-wgs84" style="stroke:#181818;stroke-width:1;stroke-dasharray:7.0,7.0;"/></g><!--link Angle to Degrees--><g id="link_Angle_Degrees"><path codeLine="56" d="M512.89,323.822 C523.77,297.772 541.78,266.922 569.5,252.142 C602.05,234.792 619.84,235.002 652.5,252.142 C688.85,271.222 711.85,315.282 723.29,343.032 " fill="#FFFFFF" fill-opacity="0.00000" id="Angle-Degrees" style="stroke:#181818;stroke-width:1;stroke-dasharray:7.0,7.0;"/></g><!--link GeodesicSegment to LatLong--><g id="link_GeodesicSegment_LatLong"><path codeLine="68" d="M408.65,135.342 C464.39,135.342 520.12,135.342 575.86,135.342 " fill="#FFFFFF" fill-opacity="0.00000" id="GeodesicSegment-LatLong" style="stroke:#181818;stroke-width:1;stroke-dasharray:7.0,7.0;"/></g><!--reverse link GeodesicSegment to Angle--><g id="link_GeodesicSegment_Angle"><path codeLine="69" d="M397.0178,236.0104 C423.3178,269.6004 444.54,296.702 465.9,323.992 " fill="#FFFFFF" fill-opacity="0.00000" id="GeodesicSegment-backto-Angle" style="stroke:#181818;stroke-width:1;"/><polygon fill="#181818" points="389.62,226.562,390.1694,233.7521,397.0178,236.0104,396.4684,228.8202,389.62,226.562" style="stroke:#181818;stroke-width:1;"/></g><!--link GeodesicSegment to Degrees--><g id="link_GeodesicSegment_Degrees"><path codeLine="70" d="M408.54,169.512 C505.26,205.812 648.47,261.132 670,278.212 C692.12,295.762 709.71,323.252 720.43,342.842 " fill="#FFFFFF" fill-opacity="0.00000" id="GeodesicSegment-Degrees" style="stroke:#181818;stroke-width:1;stroke-dasharray:7.0,7.0;"/></g><!--reverse link GeodesicSegment to Radians--><g id="link_GeodesicSegment_Radians"><path codeLine="71" d="M419.4113,185.3278 C465.1913,210.1278 509.28,238.502 551,278.212 C570.97,297.222 588.02,323.932 598.78,342.942 " fill="#FFFFFF" fill-opacity="0.00000" id="GeodesicSegment-backto-Radians" style="stroke:#181818;stroke-width:1;"/><polygon fill="#181818" points="408.86,179.612,412.2304,185.987,419.4113,185.3278,416.0409,178.9528,408.86,179.612" style="stroke:#181818;stroke-width:1;"/></g><!--link GeodesicSegment to Metres--><g id="link_GeodesicSegment_Metres"><path codeLine="72" d="M344.45,226.452 C369.71,308.842 410.03,421.822 448,448.482 C480.04,470.982 591.13,435.202 624,456.482 C655.91,477.142 671.02,521.072 677.56,548.262 " fill="#FFFFFF" fill-opacity="0.00000" id="GeodesicSegment-Metres" style="stroke:#181818;stroke-width:1;stroke-dasharray:7.0,7.0;"/></g><!--reverse link Ellipsoid to Metres--><g id="link_Ellipsoid_Metres"><path codeLine="73" d="M344.9574,438.2939 C359.1174,444.2639 362.63,444.782 377,448.482 C403.59,455.342 600.85,441.712 624,456.482 C656.04,476.932 671.11,520.932 677.61,548.192 " fill="#FFFFFF" fill-opacity="0.00000" id="Ellipsoid-backto-Metres" style="stroke:#181818;stroke-width:1;"/><polygon fill="#181818" points="333.9,433.632,337.8747,439.6487,344.9574,438.2939,340.9827,432.2771,333.9,433.632" style="stroke:#181818;stroke-width:1;"/></g><!--reverse link LatLong to Degrees--><g id="link_LatLong_Degrees"><path codeLine="74" d="M645.1517,189.5522 C668.9317,237.9522 701.68,304.572 720.57,343.032 " fill="#FFFFFF" fill-opacity="0.00000" id="LatLong-backto-Degrees" style="stroke:#181818;stroke-width:1;"/><polygon fill="#181818" points="639.86,178.782,638.9157,185.931,645.1517,189.5522,646.0959,182.4032,639.86,178.782" style="stroke:#181818;stroke-width:1;"/><text fill="#000000" font-family="sans-serif" font-size="13" lengthAdjust="spacing" textLength="7.436" x="709.7993" y="331.6273">2</text></g><!--SRC=[ZLJBRjim4BphAnQvE6bXeJ1oA7WBag0NfmUdw9NOK2kQ04KA8jKcBVplfUI7Q4gogvF47N8uixDQFDhwer5ow-5MtC7go-eUVYg47oIsncehFs3jYnmUj8PD1tEm8KVDBohoB5k0LruJF6kjQcTL0OyQdOCdXRB1AiiSUJ1OaQjHq2lLsA2t3J2MPH2UKmcKGCj_I_Vr7lxsfVEo95kGKo8gxhBJg-X9lnqmhoGhCZw2TiyItiXZigIjILRmZqfNsdUkoKY_JGfq57ss_XaqUXuEbhTtIK6W5cse4aTVS3G5V_T5X8eK3SfFB8cU0I4ibQKIAcXs2MWtxzRppBb1SF9T9ZBUHiAi8LufqpfUNX3TDRyYtoZ1mxVoRK4Nq7t7_JGs4fCstIwNWxHPL7uA56DbQuHNrhWJUh0c7-o_0Zn3zZdEefiEpMgDyjpLMseeCdxVaZNwTSZDg271WGkvtKqJeP6Qk8id9g5xw10ZCgVIaH3MJJc_tvx34yc6Q80iZfKSDbWeFFYrcvpupWutEV766kvKShtznRzZ6uA1-aLfwZRFHZxY7VulZ8tJ47M5iKCRhcxx5A9sT9cnNlHrgZpQ4Zlt_qIngLUe1eiPUmcJDy4rH3YmpE2dtEalTREw6Slv1m00]--></g></svg>